<svg xmlns="http://www.w3.org/2000/svg" version="1.1" xmlns:xlink="http://www.w3.org/1999/xlink" xmlns:svgjs="http://svgjs.dev/svgjs" width="195" height="69" viewBox="0 0 2000 1247">
	<g transform="matrix(1,0,0,1,-1.2121212121212466,0.504858299595071)">
		<svg viewBox="0 0 396 247" data-background-color="#d2d6dc" preserveAspectRatio="xMidYMid meet" height="1247" width="2000" xmlns="http://www.w3.org/2000/svg" xmlns:xlink="http://www.w3.org/1999/xlink">
			<g id="tight-bounds" transform="matrix(1,0,0,1,0.2400000000000091,-0.09999999999999432)">
				<svg viewBox="0 0 395.52 247.2" height="247.2" width="395.52">
					<g>
						<svg>
						</svg>
					</g>
					<g>
						<svg viewBox="0 0 395.52 247.2" height="247.2" width="395.52">
							<g transform="matrix(1,0,0,1,75.54432,50.816096691441516)">
								<svg viewBox="0 0 244.43135999999998 145.56780661711696" height="145.56780661711696" width="244.43135999999998">
									<g>
										<svg viewBox="0 0 244.43135999999998 145.56780661711696" height="145.56780661711696" width="244.43135999999998">
											<g>
												<svg viewBox="0 0 244.43135999999998 145.56780661711696" height="145.56780661711696" width="244.43135999999998">
													<g>
														<svg viewBox="0 0 244.43135999999998 145.56780661711696" height="145.56780661711696" width="244.43135999999998">
															<g id="textblocktransform">
																<svg viewBox="0 0 244.43135999999998 145.56780661711696" height="145.56780661711696" width="244.43135999999998" id="textblock">
																	<g>
																		<svg viewBox="0 0 244.43135999999998 78.51231913746629" height="78.51231913746629" width="244.43135999999998">
																			<g transform="matrix(1,0,0,1,0,0)">
																				<svg width="244.43135999999998" viewBox="1.2 -35 111.28999999999999 35.75" height="78.51231913746629" data-palette-color="#636365">
																					<path d="M13.65 0.75L13.65 0.75Q9.85 0.75 7.05-0.83 4.25-2.4 2.73-5.3 1.2-8.2 1.2-12.1L1.2-12.1Q1.2-16 2.83-18.85 4.45-21.7 7.28-23.25 10.1-24.8 13.65-24.8L13.65-24.8Q17.2-24.8 20-23.28 22.8-21.75 24.43-18.9 26.05-16.05 26.05-12.1L26.05-12.1Q26.05-8.15 24.53-5.28 23-2.4 20.23-0.83 17.45 0.75 13.65 0.75ZM13.65-0.25L13.65-0.25Q15.4-0.25 16.45-1.25 17.5-2.25 17.98-4.8 18.45-7.35 18.45-12L18.45-12Q18.45-16.7 17.98-19.25 17.5-21.8 16.45-22.8 15.4-23.8 13.65-23.8L13.65-23.8Q11.9-23.8 10.83-22.8 9.75-21.8 9.28-19.25 8.8-16.7 8.8-12L8.8-12Q8.8-7.35 9.28-4.8 9.75-2.25 10.83-1.25 11.9-0.25 13.65-0.25ZM40 0L28.25 0 28.25-0.5 28.95-0.7Q29.9-0.95 30.27-1.55 30.65-2.15 30.7-3.15L30.7-3.15 30.7-18.8Q30.7-19.9 30.35-20.43 30-20.95 29-21.15L29-21.15 28.25-21.35 28.25-21.85 36.8-24.75 37.3-24.25 37.7-20.85Q39.35-22.5 41.47-23.65 43.6-24.8 45.9-24.8L45.9-24.8Q48.3-24.8 49.75-23.83 51.2-22.85 51.95-20.8L51.95-20.8Q53.9-22.65 56.17-23.73 58.45-24.8 60.6-24.8L60.6-24.8Q64.15-24.8 65.82-23.1 67.5-21.4 67.5-17.75L67.5-17.75 67.5-3.1Q67.5-1.15 69.3-0.65L69.3-0.65 69.85-0.5 69.85 0 58.3 0 58.3-0.5 58.8-0.65Q59.75-0.95 60.12-1.55 60.5-2.15 60.5-3.15L60.5-3.15 60.5-18.45Q60.5-20.55 59.75-21.33 59-22.1 57.35-22.1L57.35-22.1Q56.05-22.1 54.82-21.53 53.6-20.95 52.25-19.8L52.25-19.8Q52.5-19 52.57-18.05 52.65-17.1 52.65-16.05L52.65-16.05 52.65-3.1Q52.7-1.15 54.45-0.65L54.45-0.65 54.9-0.5 54.9 0 43.3 0 43.3-0.5 44-0.7Q44.95-1 45.32-1.58 45.7-2.15 45.7-3.15L45.7-3.15 45.7-18.4Q45.7-20.4 44.97-21.25 44.25-22.1 42.5-22.1L42.5-22.1Q41.35-22.1 40.2-21.53 39.05-20.95 37.8-19.85L37.8-19.85 37.8-3.1Q37.8-1.15 39.55-0.65L39.55-0.65 40-0.5 40 0ZM83.55 0L71.8 0 71.8-0.5 72.5-0.7Q74.25-1.2 74.25-3.15L74.25-3.15 74.25-18.8Q74.25-19.9 73.89-20.43 73.55-20.95 72.55-21.15L72.55-21.15 71.8-21.35 71.8-21.85 80.34-24.75 80.84-24.25 81.25-21.25Q83-22.8 85.2-23.8 87.4-24.8 89.55-24.8L89.55-24.8Q92.84-24.8 94.62-23 96.4-21.2 96.4-17.5L96.4-17.5 96.4-3.1Q96.4-1.15 98.3-0.65L98.3-0.65 98.75-0.5 98.75 0 86.95 0 86.95-0.5 87.59-0.7Q89.34-1.25 89.34-3.15L89.34-3.15 89.34-19.1Q89.34-22.3 86.15-22.3L86.15-22.3Q83.95-22.3 81.34-20.1L81.34-20.1 81.34-3.1Q81.34-1.15 83.09-0.65L83.09-0.65 83.55-0.5 83.55 0ZM106.69-27.4L106.69-27.4Q104.99-27.4 103.82-28.48 102.64-29.55 102.64-31.2L102.64-31.2Q102.64-32.9 103.82-33.95 104.99-35 106.69-35L106.69-35Q108.39-35 109.54-33.95 110.69-32.9 110.69-31.2L110.69-31.2Q110.69-29.55 109.54-28.48 108.39-27.4 106.69-27.4ZM112.49 0L100.79 0 100.79-0.5 101.49-0.7Q102.49-1 102.87-1.6 103.24-2.2 103.24-3.2L103.24-3.2 103.24-18.85Q103.24-19.9 102.87-20.43 102.49-20.95 101.49-21.15L101.49-21.15 100.79-21.3 100.79-21.8 109.94-24.75 110.44-24.25 110.29-17.15 110.29-3.15Q110.29-2.15 110.67-1.55 111.04-0.95 111.99-0.65L111.99-0.65 112.49-0.5 112.49 0Z" opacity="1" transform="matrix(1,0,0,1,0,0)" fill="#000000" class="wordmark-text-0" data-fill-palette-color="primary" id="text-0">
																					</path>
																				</svg>
																			</g>
																		</svg>
																	</g>
																	<g transform="matrix(1,0,0,1,0,97.04719339016279)">
																		<svg viewBox="0 0 244.43135999999998 48.52061322695417" height="48.52061322695417" width="244.43135999999998">
																			<g transform="matrix(1,0,0,1,0,0)">
																				<svg width="244.43135999999998" viewBox="3.1 -43.6 320.14 63.55" height="48.52061322695417" data-palette-color="#89939e">
																					<path d="M12.15 0.5Q7.8 0.5 5.45-2.68 3.1-5.85 3.1-12.15L3.1-12.15Q3.1-19.25 5.88-24.48 8.65-29.7 12.83-32.45 17-35.2 21-35.2L21-35.2Q23.6-35.2 25.58-34.18 27.55-33.15 27.55-31.1L27.55-31.1Q27.55-29.65 26.4-27.9L26.4-27.9Q26.1-27.5 25.9-27.33 25.7-27.15 25.4-27.15L25.4-27.15Q25.05-27.15 24.9-27.48 24.75-27.8 24.7-28.25 24.65-28.7 24.6-28.9L24.6-28.9Q24.3-30.6 23.03-31.58 21.75-32.55 19.45-32.55L19.45-32.55Q15.4-32.55 12.68-29.48 9.95-26.4 8.63-21.9 7.3-17.4 7.3-13.15L7.3-13.15Q7.3-8.3 9.1-5.65 10.9-3 14.2-3L14.2-3Q16.9-3 19.28-4.75 21.65-6.5 23.25-9.75L23.25-9.75Q23.55-10.3 23.85-10.3L23.85-10.3Q24.1-10.3 24.1-9.75L24.1-9.75Q24.1-9.45 24.05-9.15 24-8.85 23.95-8.7L23.95-8.7Q23.2-6.05 21.45-3.95 19.7-1.85 17.25-0.68 14.8 0.5 12.15 0.5L12.15 0.5ZM39.3 0.5Q38.35 0.5 37.92-0.43 37.5-1.35 37.5-2.75L37.5-2.75Q37.5-3.7 37.7-5L37.7-5 40.65-24.7Q41.7-31.5 43.2-35.2 44.7-38.9 46.8-40.55L46.8-40.55Q48-41.5 49.3-41.95 50.6-42.4 53.3-43.05L53.3-43.05Q54.55-43.3 54.9-43.45 55.25-43.6 55.35-43.6L55.35-43.6Q55.7-43.6 55.7-43.2L55.7-43.2Q55.7-43 55.47-42.6 55.25-42.2 54.75-41.75L54.75-41.75Q54.2-41.25 53.7-41.08 53.2-40.9 52.5-40.85L52.5-40.85Q49.6-40.55 48.3-39.05L48.3-39.05Q45.85-36.25 44.7-28.7L44.7-28.7 41.05-5.15Q41-4.8 41-4.3L41-4.3Q41-3.2 41.65-3.2L41.65-3.2Q43.15-3.2 45.15-7.65L45.15-7.65Q45.35-8.2 45.7-8.2L45.7-8.2Q46.05-8.2 46.05-7.5L46.05-7.5Q46.05-5.85 44.87-3.95 43.7-2.05 42.1-0.78 40.5 0.5 39.3 0.5L39.3 0.5ZM62.5 0.5Q60.4 0.5 59.32-1.13 58.25-2.75 58.25-5.65L58.25-5.65Q58.25-9.7 60.2-13.95 62.15-18.2 65.02-21 67.9-23.8 70.5-23.8L70.5-23.8Q72.45-23.8 73.5-22.08 74.55-20.35 74.55-17.55L74.55-17.55Q74.55-13.8 72.72-9.55 70.9-5.3 68.1-2.4 65.3 0.5 62.5 0.5L62.5 0.5ZM64.95-2.8Q66.6-2.8 67.95-4.48 69.3-6.15 70.1-8.93 70.9-11.7 70.9-14.8L70.9-14.8Q70.9-20.5 67.95-20.5L67.95-20.5Q66.1-20.5 64.72-18.5 63.35-16.5 62.62-13.63 61.9-10.75 61.9-8.25L61.9-8.25Q61.9-5.85 62.62-4.33 63.35-2.8 64.95-2.8L64.95-2.8ZM91.8 0.5Q90.3 0.5 89.7-0.53 89.1-1.55 89.1-3.3L89.1-3.3Q89.1-4.6 89.32-6.08 89.55-7.55 89.6-7.85L89.6-7.85 91.65-20.7 86.6-20.7Q86.35-20.7 86.35-20.95L86.35-20.95Q86.35-21.45 87.45-22.38 88.55-23.3 89.05-23.3L89.05-23.3 92.05-23.3 92.55-26.4Q92.75-28.05 94.1-29.35 95.45-30.65 96.8-30.65L96.8-30.65Q97.05-30.65 97.05-30.4L97.05-30.4Q97.05-30.2 96.6-29.23 96.15-28.25 95.95-27.15L95.95-27.15 95.35-23.3 100.25-23.3Q100.55-23.3 100.55-23L100.55-23Q100.55-22.6 99.37-21.65 98.2-20.7 97.85-20.7L97.85-20.7 95.05-20.7 93-7.95Q92.95-7.6 92.72-6.25 92.5-4.9 92.5-4.15L92.5-4.15Q92.5-2.5 93.6-2.5L93.6-2.5Q94.4-2.5 95.3-3.28 96.2-4.05 96.9-5.45L96.9-5.45Q96.95-5.55 97.02-5.65 97.1-5.75 97.2-5.75L97.2-5.75Q97.45-5.75 97.45-5.1L97.45-5.1Q97.45-4.1 96.57-2.75 95.7-1.4 94.37-0.45 93.05 0.5 91.8 0.5L91.8 0.5ZM110.9 0.5Q110.55 0.5 110.55 0.25L110.55 0.25Q110.6-0.05 110.87-1.03 111.15-2 111.35-3L111.35-3Q111.65-4.35 113.4-14.85L113.4-14.85Q113.3-14.3 114.65-22.45L114.65-22.45Q115.6-28.15 117.22-32.65 118.85-37.15 121.75-40L121.75-40Q123.4-41.55 124.92-42.18 126.45-42.8 128.2-43.05L128.2-43.05Q128.8-43.1 129.45-43.35 130.1-43.6 130.2-43.6L130.2-43.6Q130.55-43.6 130.55-43.2L130.55-43.2Q130.55-42.65 129.65-41.75L129.65-41.75Q129.2-41.3 128.8-41.15 128.4-41 127.97-40.95 127.55-40.9 127.3-40.85L127.3-40.85Q125.9-40.65 124.92-40.08 123.95-39.5 122.9-38.25L122.9-38.25Q120.9-35.75 119.97-32.48 119.05-29.2 118.25-24.25L118.25-24.25Q118.05-22.65 117.9-21.9L117.9-21.9 116.8-14.9 116.85-14.9Q119.2-18.95 121.95-21.38 124.7-23.8 126.7-23.8L126.7-23.8Q128.8-23.8 128.8-20.75L128.8-20.75Q128.8-19.35 128.4-17.15L128.4-17.15Q127.45-12.4 127.45-12.4L127.45-12.4Q126-5.05 126-3.95L126-3.95Q126-3.05 126.7-3.05L126.7-3.05Q127.55-3.05 128.25-4.17 128.95-5.3 129.75-7.15L129.75-7.15Q129.8-7.2 129.92-7.45 130.05-7.7 130.25-7.7L130.25-7.7Q130.6-7.7 130.6-7.1L130.6-7.1 130.5-6.3Q130.15-4.5 129.07-2.93 128-1.35 126.67-0.43 125.35 0.5 124.25 0.5L124.25 0.5Q122.45 0.5 122.45-2.35L122.45-2.35Q122.45-3.75 122.77-5.65 123.1-7.55 123.7-10.4L123.7-10.4Q124.3-13.25 124.62-15.05 124.95-16.85 125-18.3L125-18.3Q125-19.25 124.85-19.6 124.7-19.95 124-19.95L124-19.95Q122.45-19.95 120.67-17.93 118.9-15.9 117.5-12.95 116.1-10 115.6-7.45L115.6-7.45 114.8-3.1Q114.6-1.8 113.3-0.65 112 0.5 110.9 0.5L110.9 0.5ZM147.7 0.5Q145.45 0.5 144.12-1.23 142.8-2.95 142.8-6L142.8-6Q142.8-9.7 144.57-13.93 146.35-18.15 149.15-20.98 151.95-23.8 154.8-23.8L154.8-23.8Q157.4-23.8 157.4-20.65L157.4-20.65Q157.4-18.1 155.9-15.65 154.4-13.2 151.87-11.33 149.35-9.45 146.35-8.45L146.35-8.45Q146.35-5.75 147.22-4.55 148.1-3.35 149.8-3.35L149.8-3.35Q151.6-3.35 153.1-4.5 154.6-5.65 155.65-7.65L155.65-7.65Q155.8-7.95 155.95-8.15 156.1-8.35 156.35-8.35L156.35-8.35Q156.75-8.35 156.75-7.75L156.75-7.75Q156.75-6.4 155.4-4.4 154.05-2.4 151.95-0.95 149.85 0.5 147.7 0.5L147.7 0.5ZM147.95-11.1Q149.25-11.1 150.72-12.03 152.2-12.95 153.2-14.55 154.2-16.15 154.2-18.15L154.2-18.15Q154.2-20.5 152.55-20.5L152.55-20.5Q151.2-20.5 149.97-19.05 148.75-17.6 147.92-15.45 147.1-13.3 146.8-11.3L146.8-11.3Q147.1-11.1 147.95-11.1L147.95-11.1ZM172 0.5Q170.45 0.5 169.35-0.35 168.25-1.2 167.9-2.6L167.9-2.6Q167.8-3 168.22-3.88 168.65-4.75 169.35-5.6L169.35-5.6Q169.75-6.05 170-6.05L170-6.05Q170.25-6.05 170.4-5.65L170.4-5.65Q171.9-2.15 174.55-2.15L174.55-2.15Q175.9-2.15 176.67-2.98 177.45-3.8 177.45-5.2L177.45-5.2Q177.45-7.1 175.3-10.1L175.3-10.1 174.25-11.6Q173.05-13.3 172.57-14.4 172.1-15.5 172.1-16.75L172.1-16.75Q172.1-18.75 173.17-20.35 174.25-21.95 176-22.88 177.75-23.8 179.65-23.8L179.65-23.8Q183.25-23.8 183.25-21.35L183.25-21.35Q183.25-20.45 182.6-19.55L182.6-19.55Q182.25-18.95 182-18.95L182-18.95Q181.7-18.95 181.45-19.55L181.45-19.55Q180.9-20.5 180.12-20.93 179.35-21.35 178.15-21.35L178.15-21.35Q176.75-21.35 175.9-20.6 175.05-19.85 175.05-18.7L175.05-18.7Q175.05-18.05 175.47-17.23 175.9-16.4 177.1-14.7L177.1-14.7 178.15-13.25Q179.55-11.4 180.1-10.08 180.65-8.75 180.65-7.3L180.65-7.3Q180.65-5.45 179.45-3.63 178.25-1.8 176.25-0.65 174.25 0.5 172 0.5L172 0.5ZM221.3 0.5Q219.75 0.5 218.65-0.35 217.55-1.2 217.2-2.6L217.2-2.6Q217.1-3 217.52-3.88 217.95-4.75 218.65-5.6L218.65-5.6Q219.05-6.05 219.3-6.05L219.3-6.05Q219.55-6.05 219.7-5.65L219.7-5.65Q221.2-2.15 223.85-2.15L223.85-2.15Q225.2-2.15 225.97-2.98 226.75-3.8 226.75-5.2L226.75-5.2Q226.75-7.1 224.6-10.1L224.6-10.1 223.55-11.6Q222.35-13.3 221.87-14.4 221.4-15.5 221.4-16.75L221.4-16.75Q221.4-18.75 222.47-20.35 223.55-21.95 225.3-22.88 227.05-23.8 228.95-23.8L228.95-23.8Q232.55-23.8 232.55-21.35L232.55-21.35Q232.55-20.45 231.9-19.55L231.9-19.55Q231.55-18.95 231.3-18.95L231.3-18.95Q231-18.95 230.75-19.55L230.75-19.55Q230.2-20.5 229.42-20.93 228.65-21.35 227.45-21.35L227.45-21.35Q226.05-21.35 225.2-20.6 224.35-19.85 224.35-18.7L224.35-18.7Q224.35-18.05 224.77-17.23 225.2-16.4 226.4-14.7L226.4-14.7 227.45-13.25Q228.85-11.4 229.4-10.08 229.95-8.75 229.95-7.3L229.95-7.3Q229.95-5.45 228.75-3.63 227.55-1.8 225.55-0.65 223.55 0.5 221.3 0.5L221.3 0.5ZM243.65 0.5Q243.3 0.5 243.3 0.25L243.3 0.25Q243.35-0.05 243.62-1.03 243.9-2 244.1-3L244.1-3Q244.4-4.35 246.15-14.85L246.15-14.85Q246.05-14.3 247.4-22.45L247.4-22.45Q248.35-28.15 249.97-32.65 251.6-37.15 254.5-40L254.5-40Q256.15-41.55 257.67-42.18 259.2-42.8 260.95-43.05L260.95-43.05Q261.55-43.1 262.2-43.35 262.85-43.6 262.95-43.6L262.95-43.6Q263.3-43.6 263.3-43.2L263.3-43.2Q263.3-42.65 262.4-41.75L262.4-41.75Q261.95-41.3 261.55-41.15 261.15-41 260.72-40.95 260.3-40.9 260.05-40.85L260.05-40.85Q258.65-40.65 257.67-40.08 256.7-39.5 255.65-38.25L255.65-38.25Q253.65-35.75 252.72-32.48 251.8-29.2 251-24.25L251-24.25Q250.8-22.65 250.65-21.9L250.65-21.9 249.55-14.9 249.6-14.9Q251.95-18.95 254.7-21.38 257.45-23.8 259.45-23.8L259.45-23.8Q261.55-23.8 261.55-20.75L261.55-20.75Q261.55-19.35 261.15-17.15L261.15-17.15Q260.2-12.4 260.2-12.4L260.2-12.4Q258.75-5.05 258.75-3.95L258.75-3.95Q258.75-3.05 259.45-3.05L259.45-3.05Q260.3-3.05 261-4.17 261.7-5.3 262.5-7.15L262.5-7.15Q262.55-7.2 262.67-7.45 262.8-7.7 263-7.7L263-7.7Q263.35-7.7 263.35-7.1L263.35-7.1 263.25-6.3Q262.9-4.5 261.82-2.93 260.75-1.35 259.42-0.43 258.1 0.5 257 0.5L257 0.5Q255.2 0.5 255.2-2.35L255.2-2.35Q255.2-3.75 255.52-5.65 255.85-7.55 256.45-10.4L256.45-10.4Q257.05-13.25 257.37-15.05 257.7-16.85 257.75-18.3L257.75-18.3Q257.75-19.25 257.6-19.6 257.45-19.95 256.75-19.95L256.75-19.95Q255.2-19.95 253.42-17.93 251.65-15.9 250.25-12.95 248.85-10 248.35-7.45L248.35-7.45 247.55-3.1Q247.35-1.8 246.05-0.65 244.75 0.5 243.65 0.5L243.65 0.5ZM279.8 0.5Q277.7 0.5 276.62-1.13 275.55-2.75 275.55-5.65L275.55-5.65Q275.55-9.7 277.5-13.95 279.45-18.2 282.32-21 285.2-23.8 287.8-23.8L287.8-23.8Q289.75-23.8 290.8-22.08 291.85-20.35 291.85-17.55L291.85-17.55Q291.85-13.8 290.02-9.55 288.2-5.3 285.4-2.4 282.6 0.5 279.8 0.5L279.8 0.5ZM282.25-2.8Q283.9-2.8 285.25-4.48 286.6-6.15 287.4-8.93 288.2-11.7 288.2-14.8L288.2-14.8Q288.2-20.5 285.25-20.5L285.25-20.5Q283.4-20.5 282.02-18.5 280.65-16.5 279.92-13.63 279.2-10.75 279.2-8.25L279.2-8.25Q279.2-5.85 279.92-4.33 280.65-2.8 282.25-2.8L282.25-2.8ZM295.74 19.95Q293.04 19.95 290.89 18.53 288.74 17.1 287.89 14.55L287.89 14.55Q287.79 14.15 287.79 13.9L287.79 13.9Q287.79 12.95 288.47 12.08 289.14 11.2 289.99 10.85L289.99 10.85 290.39 10.75Q290.59 10.75 290.64 11 290.69 11.25 290.69 11.3L290.69 11.3Q291.09 14.45 292.72 16.1 294.34 17.75 297.04 17.75L297.04 17.75Q300.14 17.75 302.04 14.83 303.94 11.9 304.89 5.65L304.89 5.65 308.39-16.85Q308.69-18.65 308.69-19.4L308.69-19.4Q308.69-20.15 308.29-20.15L308.29-20.15Q307.84-20.15 307.14-19.4 306.44-18.65 305.84-17.65L305.84-17.65Q305.64-17.35 305.39-16.93 305.14-16.5 304.99-16.38 304.84-16.25 304.69-16.25L304.69-16.25Q304.39-16.25 304.39-16.8L304.39-16.8Q304.39-17.7 305.49-19.43 306.59-21.15 308.07-22.48 309.54-23.8 310.64-23.8L310.64-23.8Q311.54-23.8 311.97-23.13 312.39-22.45 312.29-21.35L312.29-21.35Q312.14-19.85 311.64-16.85L311.64-16.85Q311.34-15.15 311.24-14.5L311.24-14.5 311.29-14.5Q313.24-18.05 315.97-20.93 318.69-23.8 320.69-23.8L320.69-23.8Q322.14-23.8 322.69-22.35 323.24-20.9 323.24-17.75L323.24-17.75Q323.24-13.45 321.29-9.18 319.34-4.9 316.27-2.2 313.19 0.5 309.94 0.5L309.94 0.5Q309.49 0.5 309.09 0.35L309.09 0.35 308.24 5.35Q307.49 9.65 305.72 12.98 303.94 16.3 301.37 18.13 298.79 19.95 295.74 19.95L295.74 19.95ZM312.84-2.5Q314.74-2.5 316.29-4.78 317.84-7.05 318.72-10.38 319.59-13.7 319.59-16.6L319.59-16.6Q319.59-18.25 319.34-18.98 319.09-19.7 318.54-19.7L318.54-19.7Q317.19-19.7 315.34-17.6 313.49-15.5 311.99-12.4 310.49-9.3 310.09-6.5L310.09-6.5 309.59-3.4Q310.39-2.9 311.14-2.7 311.89-2.5 312.84-2.5L312.84-2.5Z" opacity="1" transform="matrix(1,0,0,1,0,0)" fill="#000000" class="slogan-text-1" data-fill-palette-color="secondary" id="text-1">
																					</path>
																				</svg>
																			</g>
																		</svg>
																	</g>
																</svg>
															</g>
														</svg>
													</g>
												</svg>
											</g>
										</svg>
									</g>
								</svg>
							</g>
							<g>
								<path d="M0 123.6c0-68.262 55.338-123.6 123.6-123.6 36.774 0 69.797 16.06 92.438 41.549l-4.791 0c-21.907-23.392-53.07-38.008-87.647-38.009-66.307 0-120.06 53.753-120.06 120.06 0 66.307 53.753 120.06 120.06 120.06 34.577 0 65.74-14.617 87.647-38.009h4.791c-22.641 25.489-55.664 41.549-92.438 41.549-68.262 0-123.6-55.338-123.6-123.6z" fill="#000000" stroke="transparent" data-fill-palette-color="tertiary">
								</path>
							</g>
						</svg>
					</g>
					<defs>
					</defs>
				</svg>
				<rect width="395.52" height="247.2" fill="none" stroke="none" visibility="hidden">
				</rect>
			</g>
		</svg>
	</g>
</svg>
